# xmcd
#
# Track frame offsets: 
#        150
#        19289
#        42450
#        67616
#        87975
#        106937
#        125222
#        152360
#        173550
#        199840
#
# Disc length: 2938 seconds
#
# Revision: 0
# Processed by: cddbd v1.5.2PL0 Copyright (c) Steve Scherf et al.
# Submitted via: ExactAudioCopy v1.3
#
DISCID=7b0b780a
DTITLE=Joanna Connor - Six String Stories
DYEAR=2016
DGENRE=Blues
TTITLE0=It's A Woman's Way
TTITLE1=By Your Side
TTITLE2=We Stayed Together
TTITLE3=Golden
TTITLE4=Swamp Swim
TTITLE5=Love Coming On Strong
TTITLE6=Heaven
TTITLE7=Halsted Street
TTITLE8=The Sky is Crying
TTITLE9=Young Women Blues
EXTD=
EXTT0=
EXTT1=
EXTT2=
EXTT3=
EXTT4=
EXTT5=
EXTT6=
EXTT7=
EXTT8=
EXTT9=
PLAYORDER=
